<svg id="Ebene_1" data-name="Ebene 1" xmlns="http://www.w3.org/2000/svg" viewBox="0 0 533.47 509.56"><defs><style>.cls-1{fill:#fff;}.cls-2{fill:none;stroke:navy;stroke-miterlimit:10;stroke-width:2px;}.cls-3{fill:#00007d;}</style></defs><title>TeMiCo</title><path class="cls-1" d="M924.42,440.06A177.19,177.19,0,0,0,658.68,286.61,177.18,177.18,0,0,0,481.43,593.45a177.15,177.15,0,0,0,354.31.12A177.08,177.08,0,0,0,924.42,440.06Z" transform="translate(-391.95 -261.9)"/><circle class="cls-2" cx="355.31" cy="178.16" r="177.16"/><circle class="cls-2" cx="178.16" cy="178.16" r="177.16"/><circle class="cls-2" cx="266.63" cy="331.41" r="177.16"/><path class="cls-3" d="M515.38,439.51h3.29v-9.43c0-3.84-1.86-6.41-5.95-6.41a7,7,0,0,0-6.39,4.39v-9.84a16.55,16.55,0,0,1-3.29.3v21h3.34v-9.24a5,5,0,0,1,5-3.95c2.41,0,4,1.26,4,3.81Zm-19.84-5.89s0,3.84-4.44,3.84c-3.29,0-5.07-2.14-5.07-5.7,0-3.1,1.89-5.51,5.07-5.51a4.19,4.19,0,0,1,4.39,5.07l2.82-.6c.38-2.85-1.84-7-7.21-7-5.62,0-8.55,3.84-8.55,8.17,0,5.15,3.59,8.06,8.5,8.06,7.65,0,7.62-6.28,7.62-6.28Zm-28.92-2.93a5.1,5.1,0,0,1,5.1-4.44,4.2,4.2,0,0,1,4.52,4.17Zm9.46,3.67s-.38,3.07-4.36,3.07c-4.74,0-5.18-4.22-5.18-5.4l12.44.25a18.28,18.28,0,0,0,.11-1.86c0-3.29-2.49-6.74-7.43-6.74-4.33,0-8.44,2.82-8.44,8.39,0,4,2.88,7.84,8.47,7.84,7,0,7.56-5.54,7.56-5.54Zm-11.26-16.14H441.6v2.6h9.87v18.69h3.48V420.82h9.87Z" transform="translate(-391.95 -261.9)"/><path class="cls-3" d="M887.58,426.32H891v8c0,3.81,1.73,5.54,4.91,5.54a8,8,0,0,0,4.11-1.21l-1-2.19a4.37,4.37,0,0,1-2.49.79c-1.78,0-2.33-.9-2.33-3.29v-7.67h5.43v-2h-5.45v-3.75H892.6l-1.4,3.75h-3.62Zm-14.88,4.36a5.1,5.1,0,0,1,5.1-4.44,4.2,4.2,0,0,1,4.52,4.17Zm9.46,3.67s-.38,3.07-4.36,3.07c-4.74,0-5.18-4.22-5.18-5.4l12.44.25a18.28,18.28,0,0,0,.11-1.86c0-3.29-2.49-6.74-7.43-6.74-4.33,0-8.44,2.82-8.44,8.39,0,4,2.88,7.84,8.47,7.84,7,0,7.56-5.54,7.56-5.54Zm-16.39-7.13s-1.53-3.56-6.91-3.56c-3.54,0-6.19,2-6.19,4.44,0,2,1.7,3.45,4.47,4l3.34.66c2.38.49,3.51,1.23,3.51,2.55s-1.43,2-3.7,2c-3.86,0-5.59-1.7-6.36-3.48L851.43,435c.85,2.14,3.43,4.91,8.72,4.91,3.1,0,7-1.45,7-4.77,0-2.11-1.62-3.45-4.66-4.08l-3.73-.79c-2.36-.52-3.07-1.15-3.07-2s.93-1.89,3.15-1.89a5.41,5.41,0,0,1,4.66,2.41Zm-25.93-1c3.29,0,4.91,2.3,4.91,5.59s-1.62,5.7-4.91,5.7-4.93-2.41-4.93-5.7,1.64-5.59,4.93-5.59m7.92-8a19.91,19.91,0,0,1-3.29.3V427a6.44,6.44,0,0,0-5.84-3.34c-4.19,0-7.24,3.45-7.24,8.11s3,8.11,7.26,8.11a7.3,7.3,0,0,0,6.36-3.81l1.15,3.43h1.59Zm-23.08,21.3H828v-9.43c0-3.84-1.86-6.41-5.95-6.41-4.49,0-6.3,3.92-6.66,5.15L814,424.3H812.4v15.21h3.29v-9.24a5.09,5.09,0,0,1,5-3.95c2.41,0,4,1.26,4,3.81Zm-20.86-18.67h3.29v-2.63h-3.29Zm0,18.67h3.29V424.3h-3.29ZM795,425.45l.49-1.59-.14,1.59-.25,14.06h3.48v-21.3H795L786.48,437a6.84,6.84,0,0,0-1.95,0L776,418.21H772.5v21.3H776l-.19-14.06-.25-1.53.58,1.53,6.41,14.06h5.89Z" transform="translate(-391.95 -261.9)"/><path class="cls-3" d="M737,669.21s-1.53-3.56-6.91-3.56c-3.54,0-6.19,2-6.19,4.44,0,2,1.7,3.45,4.47,4l3.34.66c2.38.49,3.51,1.23,3.51,2.55s-1.43,2-3.7,2c-3.86,0-5.59-1.7-6.36-3.48L722.65,677c.85,2.14,3.43,4.91,8.72,4.91,3.1,0,7-1.45,7-4.77,0-2.11-1.62-3.45-4.66-4.08l-3.73-.79c-2.36-.52-3.07-1.15-3.07-2s.93-1.89,3.15-1.89a5.41,5.41,0,0,1,4.66,2.41Zm-21.6,12.28h3.29v-9.43c0-3.84-1.86-6.41-5.95-6.41-4.49,0-6.3,3.92-6.66,5.15l-1.4-4.52h-1.56v15.21h3.29v-9.24a5.09,5.09,0,0,1,5-3.95c2.41,0,4,1.26,4,3.81Zm-23.71-9c0-.88.9-4.17,3.29-4.17,2.88,0,1.18,4.28,1.18,4.28l3-.63s1.92-6.3-3.07-6.3c-3.45,0-4.41,3.56-4.71,5.15l-1.4-4.52h-1.59v15.21h3.29Zm-20.39.19a5.1,5.1,0,0,1,5.1-4.44,4.2,4.2,0,0,1,4.52,4.17Zm9.46,3.67s-.38,3.07-4.36,3.07c-4.74,0-5.18-4.22-5.18-5.4l12.44.25a18.28,18.28,0,0,0,.11-1.86c0-3.29-2.49-6.74-7.43-6.74-4.33,0-8.44,2.82-8.44,8.39,0,4,2.88,7.84,8.47,7.84,7,0,7.56-5.54,7.56-5.54Zm-19.19-.74s0,3.84-4.44,3.84c-3.29,0-5.07-2.14-5.07-5.7,0-3.1,1.89-5.51,5.07-5.51a4.19,4.19,0,0,1,4.39,5.07l2.82-.6c.38-2.85-1.84-7-7.21-7-5.62,0-8.55,3.84-8.55,8.17,0,5.15,3.59,8.06,8.5,8.06,7.65,0,7.62-6.28,7.62-6.28Zm-20.67,5.89h3.29v-9.43c0-3.84-1.86-6.41-5.95-6.41-4.49,0-6.3,3.92-6.66,5.15l-1.4-4.52h-1.56v15.21h3.29v-9.24a5.09,5.09,0,0,1,5-3.95c2.41,0,4,1.26,4,3.81Zm-30.48-7.73c0-3.29,1.4-5.59,5.13-5.59s5.13,2.3,5.13,5.59-1.45,5.7-5.13,5.7-5.13-2.41-5.13-5.7m-3.51,0c0,4.49,2.66,8.11,8.63,8.11s8.63-3.62,8.63-8.11-2.66-8.11-8.63-8.11-8.63,3.65-8.63,8.11m-6.61-.47s-.3,6-7.67,6c-5.07,0-8.09-3.4-8.09-8.39s3-8.36,8.09-8.36,7.54,3.51,7.54,6.66l2.8-.71c0-3.65-3.51-8.58-10.33-8.58s-11.81,4.58-11.81,11,4.49,11,11.84,11c10.74,0,11-8.58,11-8.58Z" transform="translate(-391.95 -261.9)"/></svg>